<?xml version="1.0" encoding="UTF-8"?>
<!DOCTYPE svg PUBLIC "-//W3C//DTD SVG 1.1//EN" "http://www.w3.org/Graphics/SVG/1.1/DTD/svg11.dtd">
<svg xmlns="http://www.w3.org/2000/svg" version="1.1" width="200px" height="150px" style="shape-rendering:geometricPrecision; text-rendering:geometricPrecision; image-rendering:optimizeQuality; fill-rule:evenodd; clip-rule:evenodd" xmlns:xlink="http://www.w3.org/1999/xlink">
<g><path style="opacity:1" fill="#fffefe" d="M -0.5,-0.5 C 66.1667,-0.5 132.833,-0.5 199.5,-0.5C 199.5,49.5 199.5,99.5 199.5,149.5C 132.833,149.5 66.1667,149.5 -0.5,149.5C -0.5,99.5 -0.5,49.5 -0.5,-0.5 Z"/></g>
<g><path style="opacity:1" fill="#ff9351" d="M 86.5,11.5 C 94.727,10.7322 102.56,12.0656 110,15.5C 112.706,20.3662 111.373,23.3662 106,24.5C 100.276,22.9038 94.4424,22.2371 88.5,22.5C 88.3832,24.4835 89.0499,26.1502 90.5,27.5C 94.2338,31.4033 98.4005,34.7366 103,37.5C 104.367,41.6996 104.867,46.0329 104.5,50.5C 122.26,57.0463 139.26,65.2129 155.5,75C 165.406,82.3956 164.406,88.0623 152.5,92C 149.833,92.3333 147.167,92.6667 144.5,93C 112.833,93.6667 81.1667,93.6667 49.5,93C 43.4281,92.7153 38.5947,90.2153 35,85.5C 34.3653,83.3646 34.6986,81.3646 36,79.5C 53.4537,67.0216 72.287,57.0216 92.5,49.5C 93.641,47.5787 93.8077,45.5787 93,43.5C 87.2886,39.4559 82.6219,34.4559 79,28.5C 76.6599,20.5248 79.1599,14.8582 86.5,11.5 Z"/></g>
<g><path style="opacity:1" fill="#fffdfc" d="M 96.5,58.5 C 114.04,64.4364 130.707,72.2697 146.5,82C 114.5,82.6667 82.5,82.6667 50.5,82C 65.3457,73.114 80.6791,65.2807 96.5,58.5 Z"/></g>
<g><path style="opacity:1" fill="#ff995a" d="M 144.5,105.5 C 149.351,104.784 153.518,106.117 157,109.5C 158.123,112.956 157.29,115.79 154.5,118C 157.683,119.018 159.016,121.185 158.5,124.5C 158.674,126.693 158.007,128.527 156.5,130C 144.144,137.412 139.478,134.079 142.5,120C 142.667,115.833 142.833,111.667 143,107.5C 143.717,106.956 144.217,106.289 144.5,105.5 Z"/></g>
<g><path style="opacity:1" fill="#ff9757" d="M 11.5,107.5 C 14.5184,107.335 17.5184,107.502 20.5,108C 23.8175,109.085 24.1508,110.585 21.5,112.5C 17.7377,110.91 14.2377,111.243 11,113.5C 10.1902,118.257 10.5236,122.924 12,127.5C 16.0589,130.259 19.8922,129.925 23.5,126.5C 24.2824,128.329 23.6157,129.829 21.5,131C 15.1967,133.984 10.3634,132.484 7,126.5C 6.33333,122.167 6.33333,117.833 7,113.5C 8.33203,111.34 9.83203,109.34 11.5,107.5 Z"/></g>
<g><path style="opacity:1" fill="#ff9858" d="M 59.5,107.5 C 61.3878,109.988 62.0545,112.988 61.5,116.5C 64.1667,116.5 66.8333,116.5 69.5,116.5C 69.5,117.5 69.5,118.5 69.5,119.5C 66.8333,119.5 64.1667,119.5 61.5,119.5C 60.926,124.941 63.2593,128.608 68.5,130.5C 65.3243,131.997 62.6577,131.33 60.5,128.5C 58.8702,125.724 58.2035,122.724 58.5,119.5C 56.396,119.799 54.396,119.466 52.5,118.5C 54.0225,116.717 56.0225,116.051 58.5,116.5C 58.2641,113.391 58.5975,110.391 59.5,107.5 Z"/></g>
<g><path style="opacity:1" fill="#fff5ef" d="M 146.5,108.5 C 152.219,107.974 154.219,110.308 152.5,115.5C 150.677,116.747 148.677,117.414 146.5,117.5C 146.5,114.5 146.5,111.5 146.5,108.5 Z"/></g>
<g><path style="opacity:1" fill="#ff9c5f" d="M 28.5,113.5 C 29.5,113.5 30.5,113.5 31.5,113.5C 31.9479,119.531 32.6146,125.531 33.5,131.5C 32.5,131.5 31.5,131.5 30.5,131.5C 29.1807,125.581 28.514,119.581 28.5,113.5 Z"/></g>
<g><path style="opacity:1" fill="#ff995a" d="M 112.5,114.5 C 115.187,114.336 117.854,114.503 120.5,115C 121.308,115.308 121.975,115.808 122.5,116.5C 119.943,116.782 117.277,116.949 114.5,117C 113.572,117.388 112.905,118.055 112.5,119C 115.588,121.711 119.088,123.878 123,125.5C 123.867,128.038 123.201,130.038 121,131.5C 116.944,133.243 113.444,132.576 110.5,129.5C 113.333,129.418 116.333,129.252 119.5,129C 119.957,128.586 120.291,128.086 120.5,127.5C 116.936,125.592 113.436,123.592 110,121.5C 108.916,118.341 109.75,116.008 112.5,114.5 Z"/></g>
<g><path style="opacity:1" fill="#ff9758" d="M 41.5,114.5 C 47.1595,114.159 49.8262,116.826 49.5,122.5C 49.5321,130.554 46.0321,132.887 39,129.5C 37.4961,125.961 37.1628,122.295 38,118.5C 38.6897,116.65 39.8564,115.316 41.5,114.5 Z"/></g>
<g><path style="opacity:1" fill="#ff995a" d="M 96.5,114.5 C 103.861,114.013 106.528,117.179 104.5,124C 101.289,125.153 97.9555,125.82 94.5,126C 95.1667,126.667 95.8333,127.333 96.5,128C 99.5535,128.179 102.553,128.679 105.5,129.5C 100.416,132.636 95.9158,131.969 92,127.5C 90.243,121.825 91.743,117.492 96.5,114.5 Z"/></g>
<g><path style="opacity:1" fill="#ff9758" d="M 166.5,114.5 C 172.159,114.159 174.826,116.826 174.5,122.5C 174.532,130.554 171.032,132.887 164,129.5C 162.496,125.961 162.163,122.295 163,118.5C 163.69,116.65 164.856,115.316 166.5,114.5 Z"/></g>
<g><path style="opacity:1" fill="#ff9859" d="M 178.5,115.5 C 180.812,117.146 182.812,119.146 184.5,121.5C 186.861,119.806 188.861,117.806 190.5,115.5C 191.614,116.723 191.781,118.056 191,119.5C 186.333,122.5 186.333,125.5 191,128.5C 191.749,129.635 191.583,130.635 190.5,131.5C 188.517,130.018 186.684,128.351 185,126.5C 183.5,128 182,129.5 180.5,131C 179.365,131.749 178.365,131.583 177.5,130.5C 179.358,128.476 181.025,126.309 182.5,124C 179.712,121.514 178.379,118.681 178.5,115.5 Z"/></g>
<g><path style="opacity:1" fill="#fffaf6" d="M 42.5,117.5 C 45.9496,117.573 47.283,119.406 46.5,123C 47.2439,127.934 45.4106,129.434 41,127.5C 40.037,123.851 40.537,120.518 42.5,117.5 Z"/></g>
<g><path style="opacity:1" fill="#fffaf6" d="M 167.5,117.5 C 170.95,117.573 172.283,119.406 171.5,123C 172.244,127.934 170.411,129.434 166,127.5C 165.037,123.851 165.537,120.518 167.5,117.5 Z"/></g>
<g><path style="opacity:1" fill="#fff1e9" d="M 96.5,117.5 C 102.262,116.724 103.595,118.558 100.5,123C 98.5273,123.495 96.5273,123.662 94.5,123.5C 94.2525,121.142 94.9192,119.142 96.5,117.5 Z"/></g>
<g><path style="opacity:1" fill="#ff9d60" d="M 74.5,107.5 C 75.4959,107.414 76.3292,107.748 77,108.5C 77.3333,112.833 77.6667,117.167 78,121.5C 84.218,118.182 87.3847,120.182 87.5,127.5C 87.3333,128.833 87.1667,130.167 87,131.5C 86.586,131.957 86.086,132.291 85.5,132.5C 84.6786,129.553 84.1786,126.553 84,123.5C 81.1192,121.972 78.7859,122.638 77,125.5C 76.5034,127.81 76.3367,130.143 76.5,132.5C 75.5,132.5 74.5,132.5 73.5,132.5C 73.2271,124.112 73.5604,115.779 74.5,107.5 Z"/></g>
<g><path style="opacity:1" fill="#fff9f6" d="M 146.5,120.5 C 148.857,120.337 151.19,120.503 153.5,121C 156.167,123.333 156.167,125.667 153.5,128C 151.26,128.977 148.927,129.477 146.5,129.5C 146.5,126.5 146.5,123.5 146.5,120.5 Z"/></g>
</svg>
